<svg height="100%" version="1.1" width="100%" xmlns="http://www.w3.org/2000/svg" preserveAspectRatio="xMidYMid meet" viewBox="0 0 600 442" xmlns:xlink="http://www.w3.org/1999/xlink"><desc>Created with Snap</desc><defs/><g id="root" contentwidth="254" contentheight="252">
          <rect class="background" height="2000%" width="2000%" y="-1000%" x="-1000%" style="" fill="#ffffff"/>
          <g class="content" id="content" transform="matrix(1,0,0,1,0,-1)">
            <g class="icon">
            <svg height="166" version="1.1" width="214" xmlns="http://www.w3.org/2000/svg" x="194" y="96" preserveAspectRatio="none" transform="matrix(1,0,0,1,0,0)"><desc>Created with Snap</desc><defs/><svg xmlns="http://www.w3.org/2000/svg" viewBox="194 96 214 166"><path d="M300.955 96c59.065 0 106.947 47.744 106.947 106.64 0 21.83-6.579 42.13-17.868 59.033H211.875c-11.288-16.903-17.867-37.202-17.867-59.033 0-58.896 47.881-106.64 106.947-106.64Z" id="prefix-UoD-形状结合" fill="#FFE456"/></svg></svg><svg height="252" version="1.1" width="254" xmlns="http://www.w3.org/2000/svg" x="173" y="96" preserveAspectRatio="none" transform="matrix(1,0,0,1,0,0)"><desc>Created with Snap</desc><defs/><svg xmlns="http://www.w3.org/2000/svg" viewBox="173 96 254 252"><path d="M300.955 96c59.065 0 106.947 47.744 106.947 106.64 0 21.83-6.579 42.13-17.868 59.033h11.268c14.193 0 25.698 11.505 25.698 25.698v34.93C427 336.496 415.495 348 401.302 348H198.698C184.505 348 173 336.495 173 322.302V287.37c0-14.193 11.505-25.698 25.698-25.698h13.177c-11.288-16.903-17.867-37.202-17.867-59.033 0-58.896 47.881-106.64 106.947-106.64Zm-76.391 143.802V228.32c0-13.6 3.522-26.378 9.703-37.471l-1.33-1.153c-10.579-9.222-11.773-25.205-2.757-35.891l.351-.409c9.123-10.464 24.858-11.76 35.557-3.073l.323.267.323.275 4.481 3.884a25.958 25.958 0 0 1 1.968 1.907c8.809-3.505 18.417-5.43 28.476-5.43h.502c9.958 0 19.476 1.887 28.214 5.325a25.8 25.8 0 0 1 1.381-1.365l.544-.485 4.426-3.836c10.596-9.185 26.571-8.167 35.921 2.214l.357.404c9.222 10.578 8.226 26.574-2.163 35.931l-.373.33-1.033.895c6.254 11.141 9.82 23.995 9.82 37.68v11.484a77.114 77.114 0 0 1-3.146 21.87h3.636l.45-.602c12.139-16.331 19.317-36.546 19.317-58.43 0-54.256-44.12-98.25-98.557-98.25-54.437 0-98.557 43.994-98.557 98.25 0 22.154 7.356 42.597 19.767 59.033h5.545a77.114 77.114 0 0 1-3.146-21.87Z" id="prefix--V_-形状结合" fill="#36280B" fill-rule="nonzero"/></svg></svg><svg height="109" version="1.1" width="138" xmlns="http://www.w3.org/2000/svg" x="233" y="153" preserveAspectRatio="none" transform="matrix(1,0,0,1,0,0)"><desc>Created with Snap</desc><defs/><svg xmlns="http://www.w3.org/2000/svg" viewBox="233 153 138 109"><path d="M342.497 156.97c7.208-5.994 17.918-5.16 24.107 1.939l.31.361c6.015 7.193 5.197 17.91-1.904 24.1l-6.24 5.408 3.349 5.967.368.665c5.47 10.001 8.378 21.235 8.378 32.909v11.483l-.009 1.136a68.571 68.571 0 0 1-3.545 20.735H236.509a68.628 68.628 0 0 1-3.555-21.87v-11.484l.005-.773c.127-11.582 3.12-22.712 8.637-32.614l3.32-5.958-6.43-5.572-.31-.276c-6.858-6.234-7.578-16.806-1.583-23.912l.232-.27.274-.309c6.152-6.767 16.521-7.571 23.637-1.85l.27.221.284.242 4.374 3.792.389.347c.339.312.667.639.98.976l3.911 4.213 5.341-2.125.776-.303c7.773-2.984 16.071-4.533 24.598-4.533h.502l.872.005a68.458 68.458 0 0 1 24.27 4.738l5.295 2.083 3.894-4.149.406-.418c.276-.275.563-.542.86-.801l4.464-3.87Z" id="prefix-xPi-形状结合" fill="#FFF" fill-rule="nonzero"/></svg></svg><svg height="93" version="1.1" width="117" xmlns="http://www.w3.org/2000/svg" x="243" y="163" preserveAspectRatio="none" transform="matrix(1,0,0,1,0,0)"><desc>Created with Snap</desc><defs/><svg xmlns="http://www.w3.org/2000/svg" viewBox="243 163 117 93"><path d="M256.888 176.885c2.61-2.603 2.006-7.426-1.35-10.772-3.356-3.347-8.193-3.95-10.804-1.347-2.61 2.603-2.005 7.426 1.35 10.773 3.357 3.346 8.194 3.949 10.804 1.346Zm89.064 1.904c-2.61-2.602-2.005-7.425 1.35-10.772 3.357-3.346 8.194-3.95 10.804-1.346 2.61 2.602 2.006 7.425-1.35 10.772-3.356 3.346-8.193 3.95-10.804 1.346Zm-45.06 27.66h.125c10.513 0 19.036 8.522 19.036 19.035v11.44c0 10.513-8.523 19.036-19.036 19.036h-.124c-10.513 0-19.036-8.523-19.036-19.036v-11.44c0-10.513 8.523-19.036 19.036-19.036Z" id="prefix-V-K-形状结合" fill="#FFA800"/></svg></svg><svg height="6" version="1.1" width="95" xmlns="http://www.w3.org/2000/svg" x="253" y="222" preserveAspectRatio="none" transform="matrix(1,0,0,1,0,0)"><desc>Created with Snap</desc><defs/><svg xmlns="http://www.w3.org/2000/svg" viewBox="253 222 95 6"><path d="M340.105 227.395c4.747 0 8.594-1.278 8.594-2.856 0-1.578-3.847-2.856-8.594-2.856-4.746 0-8.594 1.278-8.594 2.856 0 1.578 3.848 2.856 8.594 2.856Zm-78.3 0c4.746 0 8.593-1.278 8.593-2.856 0-1.578-3.847-2.856-8.593-2.856-4.747 0-8.594 1.278-8.594 2.856 0 1.578 3.847 2.856 8.594 2.856Z" id="prefix-O0Y-形状结合" fill="#F7D5D9"/></svg></svg><svg height="41" version="1.1" width="65" xmlns="http://www.w3.org/2000/svg" x="268" y="197" preserveAspectRatio="none" transform="matrix(1,0,0,1,0,0)"><desc>Created with Snap</desc><defs/><svg xmlns="http://www.w3.org/2000/svg" viewBox="268 197 65 41"><path d="M274.218 208.353c3.164 0 5.73-2.558 5.73-5.713 0-3.155-2.566-5.713-5.73-5.713-3.164 0-5.73 2.558-5.73 5.713 0 3.155 2.566 5.713 5.73 5.713Zm53.474 0c3.164 0 5.73-2.558 5.73-5.713 0-3.155-2.566-5.713-5.73-5.713-3.164 0-5.73 2.558-5.73 5.713 0 3.155 2.566 5.713 5.73 5.713Zm-26.724 7.617c4.747 0 8.594 2.558 8.594 5.713 0 2.72-2.86 4.996-6.69 5.572v6.255a9.52 9.52 0 0 0 4.897-2.61 1.904 1.904 0 0 1 2.688 2.696c-5.218 5.203-13.676 5.203-18.893 0a1.904 1.904 0 0 1 2.688-2.696 9.52 9.52 0 0 0 4.813 2.593v-6.238c-3.83-.576-6.69-2.852-6.69-5.572 0-3.155 3.847-5.713 8.593-5.713Z" id="prefix-8uV-形状结合" fill="#011927"/></svg></svg></g>
            <g id="icon_name_and_slogan_gap">
            </g>
            <g class="name_and_slogan" id="name_and_slogan_id">
              <g class="name"><g id="nameDefaultGroup"><path d="M259.4 318.3 L266.8 318.3 L266.8 287.2 L276.5 287.2 L276.5 327.7 L259.4 327.7 L259.4 318.3 Z M284.5 319.8 Q283.8 314.8 282.1 306.5 Q280.4 298.3 279.3 294.1 L288.2 292.8 Q289.3 296.7 291.1 304.9 Q292.8 313 293.5 318 L284.5 319.8 Z M248.5 318.2 Q249.7 313.8 251 305.6 Q252.4 297.5 252.8 293.1 L262 294.2 Q261.7 298.3 260.4 306.6 Q259.1 314.8 258 319.8 L248.5 318.2 Z M323.1 308.1 L345 308.1 L345 327.4 L305.1 327.4 L305.1 308.1 L305.6 308.1 L301.5 304.9 Q305 302.8 307.1 301 L302.2 301 L302.2 296 L311.3 296 Q311.6 295.2 311.7 294.8 Q311.7 294.6 311.7 294.3 Q311.8 294 311.8 293.7 L309.4 293.7 L308.8 294.8 Q308.7 295 308.5 295.3 Q308.4 295.5 308.3 295.8 L302.2 293.4 Q303.1 291.3 303.6 289.9 Q304 288.5 304.5 286 L311.4 286.8 Q311.2 287.8 311 289 L324.5 289 L324.5 293.7 L319.2 293.7 L319 295.3 L319 296 L325.5 296 L325.5 301 L321.5 301 Q323.5 302.2 325.7 303.8 L323.1 308.1 Z M326.9 306.5 L326.9 288.8 L346.5 288.8 L346.5 306.5 L326.9 306.5 Z M334.7 301.2 L338.7 301.2 L338.7 294.8 L334.7 294.8 L334.7 301.2 Z M314.8 303.2 Q313.6 304.4 312.1 305.5 Q310.7 306.7 308.5 308.1 L321.5 308.1 Q318.7 306 314.6 303.6 L314.8 303.2 Z M314.2 315.2 L336 315.2 L336 312.7 L314.2 312.7 L314.2 315.2 Z M314.2 319 L314.2 321.9 L336 321.9 L336 319 L314.2 319 Z" style="" fill="#ffffff" transform="matrix(1,0,0,1,0,0)"/></g></g>
              <g class="slogan"><g id="sloganDefaultGroup"/></g>
            </g>
            <g class="border">
            </g>
          </g>
          
          <defs id="defs">
            <mask xmlns="http://www.w3.org/2000/svg" id="mask">
                <rect id="showAll" fill="white" x="173" y="96" width="254" height="252"/>
                <rect id="hideNameBg" fill="black" x="0" y="0" width="0" height="0" stroke-width="2" stroke="black"/>
                <rect id="hideSloganBg" fill="black" x="0" y="0" width="0" height="0" stroke-width="2" stroke="black"/>
            </mask>
          </defs>
          
        </g>
        </svg>