<svg width="1000" height="1000" xmlns="http://www.w3.org/2000/svg" version="1.1" preserveAspectRatio="xMidYMid meet"><desc>Created with Snap</desc><g><title>Layer 1</title><path id="svg_25" d="m0,0l12000,0l0,8840l-12000,0l0,-8840z" opacity="undefined" fill="none"/><g class="content" id="content" transform="matrix(3.89925 0 0 3.91576 -5.9024 -13.4629)"><g class="icon" id="svg_26"><svg height="166" version="1.1" width="214" x="24" y="5" preserveAspectRatio="none" id="svg_1" xmlns="http://www.w3.org/2000/svg"><desc>Created with Snap</desc><svg viewBox="194 96 214 166" id="svg_6" xmlns="http://www.w3.org/2000/svg"><path d="m300.955,96c59.065,0 106.947,47.744 106.947,106.64c0,21.83 -6.579,42.13 -17.868,59.033l-178.159,0c-11.288,-16.903 -17.867,-37.202 -17.867,-59.033c0,-58.896 47.881,-106.64 106.947,-106.64z" id="svg_8" fill="#FFE456"/></svg></svg><svg height="252" version="1.1" width="254" x="3" y="5" preserveAspectRatio="none" id="svg_10" xmlns="http://www.w3.org/2000/svg"><desc>Created with Snap</desc><svg viewBox="173 96 254 252" id="svg_16" xmlns="http://www.w3.org/2000/svg"><path d="m300.955,96c59.065,0 106.947,47.744 106.947,106.64c0,21.83 -6.579,42.13 -17.868,59.033l11.268,0c14.193,0 25.698,11.505 25.698,25.698l0,34.93c0,14.195 -11.505,25.699 -25.698,25.699l-202.604,0c-14.193,0 -25.698,-11.505 -25.698,-25.698l0,-34.932c0,-14.193 11.505,-25.698 25.698,-25.698l13.177,0c-11.288,-16.903 -17.867,-37.202 -17.867,-59.033c0,-58.896 47.881,-106.64 106.947,-106.64l0,0.001zm-76.391,143.802l0,-11.482c0,-13.6 3.522,-26.378 9.703,-37.471l-1.33,-1.153c-10.579,-9.222 -11.773,-25.205 -2.757,-35.891l0.351,-0.409c9.123,-10.464 24.858,-11.76 35.557,-3.073l0.323,0.267l0.323,0.275l4.481,3.884a25.958,25.958 0 0 1 1.968,1.907c8.809,-3.505 18.417,-5.43 28.476,-5.43l0.502,0c9.958,0 19.476,1.887 28.214,5.325a25.8,25.8 0 0 1 1.381,-1.365l0.544,-0.485l4.426,-3.836c10.596,-9.185 26.571,-8.167 35.921,2.214l0.357,0.404c9.222,10.578 8.226,26.574 -2.163,35.931l-0.373,0.33l-1.033,0.895c6.254,11.141 9.82,23.995 9.82,37.68l0,11.484a77.114,77.114 0 0 1 -3.146,21.87l3.636,0l0.45,-0.602c12.139,-16.331 19.317,-36.546 19.317,-58.43c0,-54.256 -44.12,-98.25 -98.557,-98.25c-54.437,0 -98.557,43.994 -98.557,98.25c0,22.154 7.356,42.597 19.767,59.033l5.545,0a77.114,77.114 0 0 1 -3.146,-21.87l0,-0.002z" id="svg_17" fill="#36280B" fill-rule="nonzero"/></svg></svg><svg height="109" version="1.1" width="138" x="63" y="62" preserveAspectRatio="none" id="svg_20" xmlns="http://www.w3.org/2000/svg"><desc>Created with Snap</desc><svg viewBox="233 153 138 109" id="svg_27" xmlns="http://www.w3.org/2000/svg"><path d="m342.497,156.97c7.208,-5.994 17.918,-5.16 24.107,1.939l0.31,0.361c6.015,7.193 5.197,17.91 -1.904,24.1l-6.24,5.408l3.349,5.967l0.368,0.665c5.47,10.001 8.378,21.235 8.378,32.909l0,11.483l-0.009,1.136a68.571,68.571 0 0 1 -3.545,20.735l-130.802,0a68.628,68.628 0 0 1 -3.555,-21.87l0,-11.484l0.005,-0.773c0.127,-11.582 3.12,-22.712 8.637,-32.614l3.32,-5.958l-6.43,-5.572l-0.31,-0.276c-6.858,-6.234 -7.578,-16.806 -1.583,-23.912l0.232,-0.27l0.274,-0.309c6.152,-6.767 16.521,-7.571 23.637,-1.85l0.27,0.221l0.284,0.242l4.374,3.792l0.389,0.347c0.339,0.312 0.667,0.639 0.98,0.976l3.911,4.213l5.341,-2.125l0.776,-0.303c7.773,-2.984 16.071,-4.533 24.598,-4.533l0.502,0l0.872,0.005a68.458,68.458 0 0 1 24.27,4.738l5.295,2.083l3.894,-4.149l0.406,-0.418c0.276,-0.275 0.563,-0.542 0.86,-0.801l4.464,-3.87l0.275,-0.233z" id="svg_28" fill="#FFF" fill-rule="nonzero"/></svg></svg><svg height="93" version="1.1" width="117" x="73" y="72" preserveAspectRatio="none" id="svg_30" xmlns="http://www.w3.org/2000/svg"><desc>Created with Snap</desc><svg viewBox="243 163 117 93" id="svg_34" xmlns="http://www.w3.org/2000/svg"><path d="m256.888,176.885c2.61,-2.603 2.006,-7.426 -1.35,-10.772c-3.356,-3.347 -8.193,-3.95 -10.804,-1.347c-2.61,2.603 -2.005,7.426 1.35,10.773c3.357,3.346 8.194,3.949 10.804,1.346zm89.064,1.904c-2.61,-2.602 -2.005,-7.425 1.35,-10.772c3.357,-3.346 8.194,-3.95 10.804,-1.346c2.61,2.602 2.006,7.425 -1.35,10.772c-3.356,3.346 -8.193,3.95 -10.804,1.346zm-45.06,27.66l0.125,0c10.513,0 19.036,8.522 19.036,19.035l0,11.44c0,10.513 -8.523,19.036 -19.036,19.036l-0.124,0c-10.513,0 -19.036,-8.523 -19.036,-19.036l0,-11.44c0,-10.513 8.523,-19.036 19.036,-19.036l-0.001,0.001z" id="svg_43" fill="#FFA800"/></svg></svg><svg height="6" version="1.1" width="95" x="83" y="131" preserveAspectRatio="none" id="svg_45" xmlns="http://www.w3.org/2000/svg"><desc>Created with Snap</desc><svg viewBox="253 222 95 6" id="svg_49" xmlns="http://www.w3.org/2000/svg"><path d="m340.105,227.395c4.747,0 8.594,-1.278 8.594,-2.856c0,-1.578 -3.847,-2.856 -8.594,-2.856c-4.746,0 -8.594,1.278 -8.594,2.856c0,1.578 3.848,2.856 8.594,2.856zm-78.3,0c4.746,0 8.593,-1.278 8.593,-2.856c0,-1.578 -3.847,-2.856 -8.593,-2.856c-4.747,0 -8.594,1.278 -8.594,2.856c0,1.578 3.847,2.856 8.594,2.856z" id="svg_50" fill="#F7D5D9"/></svg></svg><svg height="41" version="1.1" width="65" x="98" y="106" preserveAspectRatio="none" id="svg_52" xmlns="http://www.w3.org/2000/svg"><desc>Created with Snap</desc><svg viewBox="268 197 65 41" id="svg_56" xmlns="http://www.w3.org/2000/svg"><path d="m274.218,208.353c3.164,0 5.73,-2.558 5.73,-5.713c0,-3.155 -2.566,-5.713 -5.73,-5.713c-3.164,0 -5.73,2.558 -5.73,5.713c0,3.155 2.566,5.713 5.73,5.713zm53.474,0c3.164,0 5.73,-2.558 5.73,-5.713c0,-3.155 -2.566,-5.713 -5.73,-5.713c-3.164,0 -5.73,2.558 -5.73,5.713c0,3.155 2.566,5.713 5.73,5.713zm-26.724,7.617c4.747,0 8.594,2.558 8.594,5.713c0,2.72 -2.86,4.996 -6.69,5.572l0,6.255a9.52,9.52 0 0 0 4.897,-2.61a1.904,1.904 0 0 1 2.688,2.696c-5.218,5.203 -13.676,5.203 -18.893,0a1.904,1.904 0 0 1 2.688,-2.696a9.52,9.52 0 0 0 4.813,2.593l0,-6.238c-3.83,-0.576 -6.69,-2.852 -6.69,-5.572c0,-3.155 3.847,-5.713 8.593,-5.713z" id="svg_57" fill="#011927"/></svg></svg></g><g id="icon_name_and_slogan_gap"/><g class="name_and_slogan" id="name_and_slogan_id"><g class="name" id="svg_39"><g id="nameDefaultGroup"><path d="m89.4,227.3l7.4,0l0,-31.1l9.7,0l0,40.5l-17.1,0l0,-9.4zm25.1,1.5q-0.7,-5 -2.4,-13.3q-1.7,-8.2 -2.8,-12.4l8.9,-1.3q1.1,3.9 2.9,12.1q1.7,8.1 2.4,13.1l-9,1.8zm-36,-1.6q1.2,-4.4 2.5,-12.6q1.4,-8.1 1.8,-12.5l9.2,1.1q-0.3,4.1 -1.6,12.4q-1.3,8.2 -2.4,13.2l-9.5,-1.6zm74.6,-10.1l21.9,0l0,19.3l-39.9,0l0,-19.3l0.5,0l-4.1,-3.2q3.5,-2.1 5.6,-3.9l-4.9,0l0,-5l9.1,0q0.3,-0.8 0.4,-1.2q0,-0.2 0,-0.5q0.1,-0.3 0.1,-0.6l-2.4,0l-0.6,1.1q-0.1,0.2 -0.3,0.5q-0.1,0.2 -0.2,0.5l-6.1,-2.4q0.9,-2.1 1.4,-3.5q0.4,-1.4 0.9,-3.9l6.9,0.8q-0.2,1 -0.4,2.2l13.5,0l0,4.7l-5.3,0l-0.2,1.6l0,0.7l6.5,0l0,5l-4,0q2,1.2 4.2,2.8l-2.6,4.3zm3.8,-1.6l0,-17.7l19.6,0l0,17.7l-19.6,0zm7.8,-5.3l4,0l0,-6.4l-4,0l0,6.4zm-19.9,2q-1.2,1.2 -2.7,2.3q-1.4,1.2 -3.6,2.6l13,0q-2.8,-2.1 -6.9,-4.5l0.2,-0.4zm-0.6,12l21.8,0l0,-2.5l-21.8,0l0,2.5zm0,3.8l0,2.9l21.8,0l0,-2.9l-21.8,0z" fill="#ffffff" id="svg_40"/></g></g><g class="slogan" id="svg_41"><g id="sloganDefaultGroup"/></g></g><g class="border" id="svg_42"/></g><defs id="defs" transform="translate(-123 -93) translate(17 7) translate(-25 -52) translate(34 62) translate(-12 1) translate(-63 -19) translate(1 0)"><mask id="mask" xmlns="http://www.w3.org/2000/svg"><rect id="showAll" fill="white" x="173" y="96" width="254" height="252"/><rect id="hideNameBg" fill="black" x="0" y="0" width="0" height="0" stroke-width="2" stroke="black"/><rect id="hideSloganBg" fill="black" x="0" y="0" width="0" height="0" stroke-width="2" stroke="black"/></mask></defs></g></svg>